<?xml version="1.0" encoding="UTF-8" standalone="no"?>
<svg
   width="81.25"
   height="30.142191"
   version="1.1"
   id="svg31"
   sodipodi:docname="myName.svg"
   inkscape:version="1.4.2 (ebf0e940, 2025-05-08)"
   xmlns:inkscape="http://www.inkscape.org/namespaces/inkscape"
   xmlns:sodipodi="http://sodipodi.sourceforge.net/DTD/sodipodi-0.dtd"
   xmlns:xlink="http://www.w3.org/1999/xlink"
   xmlns="http://www.w3.org/2000/svg"
   xmlns:svg="http://www.w3.org/2000/svg">
  <sodipodi:namedview
     id="namedview31"
     pagecolor="#ffffff"
     bordercolor="#000000"
     borderopacity="0.25"
     inkscape:showpageshadow="2"
     inkscape:pageopacity="0.0"
     inkscape:pagecheckerboard="0"
     inkscape:deskcolor="#d1d1d1"
     inkscape:zoom="5.9119461"
     inkscape:cx="82.629306"
     inkscape:cy="21.651077"
     inkscape:window-width="1920"
     inkscape:window-height="1027"
     inkscape:window-x="0"
     inkscape:window-y="1105"
     inkscape:window-maximized="0"
     inkscape:current-layer="svg31" />
  <defs
     id="defs4">
    <linearGradient
       id="grad1"
       x1="0"
       y1="0"
       x2="1"
       y2="0">
      <stop
         offset="1%"
         style="top-color:rgb(250,195,152);stop-opacity:.1"
         id="stop1" />
      <stop
         offset="100%"
         style="stop-color:rgb(25,25,20);stop-opacity:.75"
         id="stop4" />
    </linearGradient>
    <linearGradient
       inkscape:collect="always"
       xlink:href="#grad1"
       id="linearGradient31"
       x1="2240.8232"
       y1="0"
       x2="2243.7964"
       y2="0"
       gradientTransform="scale(0.0365937,27.327112)"
       gradientUnits="userSpaceOnUse" />
    <linearGradient
       inkscape:collect="always"
       xlink:href="#grad1"
       id="linearGradient32"
       x1="875.37488"
       y1="0"
       x2="883.07874"
       y2="0"
       gradientTransform="scale(0.09481652,10.546685)"
       gradientUnits="userSpaceOnUse" />
    <linearGradient
       inkscape:collect="always"
       xlink:href="#grad1"
       id="linearGradient33"
       x1="904.01068"
       y1="0"
       x2="911.56036"
       y2="0"
       gradientTransform="scale(0.09291925,10.762032)"
       gradientUnits="userSpaceOnUse" />
    <linearGradient
       inkscape:collect="always"
       xlink:href="#grad1"
       id="linearGradient34"
       x1="936.49988"
       y1="0"
       x2="943.87445"
       y2="0"
       gradientTransform="scale(0.09076349,11.017646)"
       gradientUnits="userSpaceOnUse" />
    <linearGradient
       inkscape:collect="always"
       xlink:href="#grad1"
       id="linearGradient35"
       x1="834.97595"
       y1="0"
       x2="843.34448"
       y2="0"
       gradientTransform="scale(0.10299698,9.7090228)"
       gradientUnits="userSpaceOnUse" />
    <linearGradient
       inkscape:collect="always"
       xlink:href="#grad1"
       id="linearGradient36"
       x1="931.03485"
       y1="0"
       x2="938.62726"
       y2="0"
       gradientTransform="scale(0.09344441,10.70155)"
       gradientUnits="userSpaceOnUse" />
    <linearGradient
       inkscape:collect="always"
       xlink:href="#grad1"
       id="linearGradient37"
       x1="924.84467"
       y1="0"
       x2="932.57568"
       y2="0"
       gradientTransform="scale(0.09515112,10.509598)"
       gradientUnits="userSpaceOnUse" />
    <linearGradient
       inkscape:collect="always"
       xlink:href="#grad1"
       id="linearGradient38"
       x1="902.20862"
       y1="0"
       x2="910.22369"
       y2="0"
       gradientTransform="scale(0.09864681,10.137176)"
       gradientUnits="userSpaceOnUse" />
    <linearGradient
       inkscape:collect="always"
       xlink:href="#grad1"
       id="linearGradient39"
       x1="813.35669"
       y1="0"
       x2="822.34717"
       y2="0"
       gradientTransform="scale(0.11065256,9.0372962)"
       gradientUnits="userSpaceOnUse" />
    <linearGradient
       inkscape:collect="always"
       xlink:href="#grad1"
       id="linearGradient40"
       x1="791.29492"
       y1="0"
       x2="800.63879"
       y2="0"
       gradientTransform="scale(0.11500137,8.6955489)"
       gradientUnits="userSpaceOnUse" />
    <linearGradient
       inkscape:collect="always"
       xlink:href="#grad1"
       id="linearGradient41"
       x1="687.55225"
       y1="0"
       x2="698.42413"
       y2="0"
       gradientTransform="scale(0.13380802,7.4733938)"
       gradientUnits="userSpaceOnUse" />
    <linearGradient
       inkscape:collect="always"
       xlink:href="#grad1"
       id="linearGradient42"
       x1="717.54895"
       y1="0"
       x2="728.07959"
       y2="0"
       gradientTransform="scale(0.12960788,7.71558)"
       gradientUnits="userSpaceOnUse" />
    <linearGradient
       inkscape:collect="always"
       xlink:href="#grad1"
       id="linearGradient43"
       x1="662.85455"
       y1="0"
       x2="674.37671"
       y2="0"
       gradientTransform="scale(0.14181089,7.0516444)"
       gradientUnits="userSpaceOnUse" />
    <linearGradient
       inkscape:collect="always"
       xlink:href="#grad1"
       id="linearGradient44"
       x1="726.65436"
       y1="0"
       x2="737.27667"
       y2="0"
       gradientTransform="scale(0.13073616,7.6489932)"
       gradientUnits="userSpaceOnUse" />
    <linearGradient
       inkscape:collect="always"
       xlink:href="#grad1"
       id="linearGradient45"
       x1="693.57098"
       y1="0"
       x2="704.81714"
       y2="0"
       gradientTransform="scale(0.1384141,7.2246976)"
       gradientUnits="userSpaceOnUse" />
    <linearGradient
       inkscape:collect="always"
       xlink:href="#grad1"
       id="linearGradient46"
       x1="646.88098"
       y1="0"
       x2="659.06445"
       y2="0"
       gradientTransform="scale(0.14995031,6.6688759)"
       gradientUnits="userSpaceOnUse" />
    <linearGradient
       inkscape:collect="always"
       xlink:href="#grad1"
       id="linearGradient47"
       x1="644.21216"
       y1="0"
       x2="656.5722"
       y2="0"
       gradientTransform="scale(0.15212379,6.5735936)"
       gradientUnits="userSpaceOnUse" />
    <linearGradient
       inkscape:collect="always"
       xlink:href="#grad1"
       id="linearGradient48"
       x1="702.00244"
       y1="0"
       x2="713.46069"
       y2="0"
       gradientTransform="scale(0.14102515,7.0909336)"
       gradientUnits="userSpaceOnUse" />
    <linearGradient
       inkscape:collect="always"
       xlink:href="#grad1"
       id="linearGradient49"
       x1="450.69391"
       y1="0"
       x2="468.72168"
       y2="0"
       gradientTransform="scale(0.22188008,4.5069391)"
       gradientUnits="userSpaceOnUse" />
    <linearGradient
       inkscape:collect="always"
       xlink:href="#grad1"
       id="linearGradient50"
       x1="550.38818"
       y1="0"
       x2="565.2981"
       y2="0"
       gradientTransform="scale(0.18350685,5.449388)"
       gradientUnits="userSpaceOnUse" />
    <linearGradient
       inkscape:collect="always"
       xlink:href="#grad1"
       id="linearGradient51"
       x1="527.23657"
       y1="0"
       x2="542.95532"
       y2="0"
       gradientTransform="scale(0.19346153,5.1689862)"
       gradientUnits="userSpaceOnUse" />
    <linearGradient
       inkscape:collect="always"
       xlink:href="#grad1"
       id="linearGradient52"
       x1="584.01447"
       y1="0"
       x2="598.34418"
       y2="0"
       gradientTransform="scale(0.1763655,5.6700432)"
       gradientUnits="userSpaceOnUse" />
    <linearGradient
       inkscape:collect="always"
       xlink:href="#grad1"
       id="linearGradient53"
       x1="619.3689"
       y1="0"
       x2="633.01178"
       y2="0"
       gradientTransform="scale(0.16791286,5.95547)"
       gradientUnits="userSpaceOnUse" />
    <linearGradient
       inkscape:collect="always"
       xlink:href="#grad1"
       id="linearGradient54"
       x1="623.22321"
       y1="0"
       x2="636.91211"
       y2="0"
       gradientTransform="scale(0.16847897,5.935459)"
       gradientUnits="userSpaceOnUse" />
    <linearGradient
       inkscape:collect="always"
       xlink:href="#grad1"
       id="linearGradient55"
       x1="627.89069"
       y1="0"
       x2="641.60724"
       y2="0"
       gradientTransform="scale(0.1688192,5.923497)"
       gradientUnits="userSpaceOnUse" />
    <linearGradient
       inkscape:collect="always"
       xlink:href="#grad1"
       id="linearGradient56"
       x1="505.86133"
       y1="0"
       x2="523.04736"
       y2="0"
       gradientTransform="scale(0.21152042,4.7276759)"
       gradientUnits="userSpaceOnUse" />
    <linearGradient
       inkscape:collect="always"
       xlink:href="#grad1"
       id="linearGradient57"
       x1="570.22198"
       y1="0"
       x2="585.61078"
       y2="0"
       gradientTransform="scale(0.18939991,5.2798334)"
       gradientUnits="userSpaceOnUse" />
    <linearGradient
       inkscape:collect="always"
       xlink:href="#grad1"
       id="linearGradient58"
       x1="554.27081"
       y1="0"
       x2="570.24902"
       y2="0"
       gradientTransform="scale(0.19665477,5.0850534)"
       gradientUnits="userSpaceOnUse" />
  </defs>
  <g
     id="g31"
     transform="rotate(90,81.625,-0.375)">
    <path
       fill="url(#grad1)"
       stroke-width="0"
       d="m 82,0 0.0067,1.25 -6.68e-4,1.25 -0.0026,1.25 0.0021,1.25 -0.0024,1.25 -8.58e-4,1.25 0.0012,1.25 -2.51e-4,1.25 -0.0011,1.25 0.0082,1.25 -0.0089,1.25 0.0076,1.25 -0.0012,1.25 0.0032,1.25 -0.0023,1.25 0.02267,1.25 0.07728,1.25 -0.04311,1.25 -0.0485,1.25 -0.0023,1.25 -0.0059,1.25 -4.7e-4,1.25 9.08e-4,1.25 3.49e-4,1.25 -0.0018,1.25 0.0081,1.25 0.01881,1.25 0.06849,1.25 -0.03278,1.25 -0.04689,1.25 -0.01019,1.25 -0.0012,1.25 -0.002,1.25 -0.0022,1.25 0.0043,1.25 -0.0016,1.25 0.0014,1.25 -2.83e-4,1.25 0.0019,1.25 0.0034,1.25 -7.96e-4,1.25 0.0019,1.25 0.0052,1.25 0.0038,1.25 0.02173,1.25 0.03504,1.25 -0.01699,1.25 -0.04075,1.25 -0.0071,1.25 -0.0062,1.25 -0.0036,1.25 -0.0012,1.25 -0.0017,1.25 -0.0039,1.25 0.002,1.25 0.0022,1.25 2.87e-4,1.25 -0.0031,1.25 -0.0022,1.25 0.005,1.25 -0.0039,1.25 5.57e-4,1.25 -0.0016,1.25 0.0031,1.25 L 82,81.25"
       id="path4"
       style="fill:url(#linearGradient31)" />
    <path
       fill="url(#grad1)"
       stroke-width="0"
       d="m 83,0 0.02066,1.25 -0.0016,1.25 -0.0021,1.25 1.46e-4,1.25 0.0044,1.25 0.003,1.25 -0.0069,1.25 0.0064,1.25 1.26e-4,1.25 -0.0013,1.25 0.0045,1.25 0.001,1.25 0.0023,1.25 0.0053,1.25 0.01628,1.25 0.127008,1.25 0.551155,1.25 -0.260294,1.25 -0.366203,1.25 -0.04822,1.25 -0.01027,1.25 -0.0029,1.25 0.0012,1.25 0.01021,1.25 0.0039,1.25 0.0073,1.25 0.127433,1.25 0.493714,1.25 -0.118174,1.25 -0.412165,1.25 -0.07513,1.25 -0.0253,1.25 0.0019,1.25 0.01883,1.25 0.08469,1.25 0.410848,1.25 -0.273431,1.25 -0.185615,1.25 0.0051,1.25 0.02403,1.25 0.201382,1.25 0.120345,1.25 -0.167166,1.25 0.0036,1.25 0.105343,1.25 0.116495,1.25 0.0366,1.25 -0.308895,1.25 -0.08197,1.25 -0.04233,1.25 -0.01764,1.25 -0.0097,1.25 -0.0013,1.25 -0.0017,1.25 0.01554,1.25 0.0099,1.25 0.02875,1.25 0.0781,1.25 -0.0043,1.25 L 83.366237,75 83.19014,76.25 83.10561,77.5 83.07965,78.75 83.066496,80 83,81.25"
       id="path5"
       style="fill:url(#linearGradient32)" />
    <path
       fill="url(#grad1)"
       stroke-width="0"
       d="m 84,0 0.02871,1.25 -0.0035,1.25 0.0039,1.25 0.0013,1.25 0.0018,1.25 -0.0049,1.25 7.63e-4,1.25 0.0032,1.25 -0.0025,1.25 0.0076,1.25 -0.0024,1.25 0.0065,1.25 0.0058,1.25 0.0039,1.25 0.02339,1.25 0.142339,1.25 0.485735,1.25 -0.17463,1.25 -0.399019,1.25 -0.06513,1.25 -0.0074,1.25 -0.008,1.25 -0.0015,1.25 0.0082,1.25 0.0047,1.25 0.01204,1.25 0.09471,1.25 0.410442,1.25 0.01234,1.25 -0.435506,1.25 -0.09315,1.25 -0.03088,1.25 -0.02479,1.25 0.04264,1.25 0.136515,1.25 0.378866,1.25 -0.119863,1.25 -0.27815,1.25 0.03663,1.25 0.05196,1.25 0.140544,1.25 0.245541,1.25 -0.279633,1.25 -0.01698,1.25 0.09009,1.25 0.0091,1.25 0.113573,1.25 -0.318273,1.25 -0.09833,1.25 -0.04751,1.25 -0.01958,1.25 -0.01174,1.25 -0.01509,1.25 -6.37e-4,1.25 0.01183,1.25 0.01515,1.25 0.03935,1.25 0.106033,1.25 0.225978,1.25 0.123641,1.25 -0.179627,1.25 -0.113775,1.25 -0.03742,1.25 L 84.221941,80 84,81.25"
       id="path6"
       style="fill:url(#linearGradient33)" />
    <path
       fill="url(#grad1)"
       stroke-width="0"
       d="m 85,0 0.02665,1.25 0.0018,1.25 0.0036,1.25 6.46e-4,1.25 0.0011,1.25 -0.0057,1.25 0.0037,1.25 0.0053,1.25 -0.0065,1.25 0.0013,1.25 9.76e-4,1.25 7.4e-5,1.25 -0.0031,1.25 -0.0025,1.25 0.0017,1.25 0.118757,1.25 0.492178,1.25 -0.151704,1.25 -0.381102,1.25 -0.03757,1.25 -0.01116,1.25 0.0037,1.25 0.0035,1.25 0.0047,1.25 0.01431,1.25 0.01042,1.25 -0.03044,1.25 0.446846,1.25 0.04523,1.25 -0.419576,1.25 -0.06424,1.25 0.0098,1.25 0.0172,1.25 0.03619,1.25 0.137624,1.25 0.372989,1.25 -0.116577,1.25 -0.360545,1.25 0.03539,1.25 0.0342,1.25 0.03733,1.25 0.277473,1.25 -0.311805,1.25 -0.04705,1.25 0.08686,1.25 0.205001,1.25 0.182359,1.25 -0.315917,1.25 -0.104764,1.25 -0.04433,1.25 -0.02338,1.25 -0.01505,1.25 -0.0021,1.25 0.0081,1.25 0.0039,1.25 0.02363,1.25 0.04119,1.25 0.107852,1.25 -0.127332,1.25 0.172303,1.25 -0.148082,1.25 -0.135263,1.25 -0.04982,1.25 L 85.038861,80 85,81.25"
       id="path7"
       style="fill:url(#linearGradient34)" />
    <path
       fill="url(#grad1)"
       stroke-width="0"
       d="m 86,0 0.05099,1.25 -0.01295,1.25 0.01019,1.25 -0.0096,1.25 0.02811,1.25 -0.01323,1.25 0.02122,1.25 -0.0075,1.25 -0.0036,1.25 0.0018,1.25 0.0087,1.25 -0.0014,1.25 0.007,1.25 -0.0065,1.25 0.0178,1.25 0.13299,1.25 0.567126,1.25 -0.314933,1.25 -0.350187,1.25 -0.02963,1.25 -0.0117,1.25 5.62e-4,1.25 -10e-4,1.25 0.0038,1.25 -0.005,1.25 0.0068,1.25 0.0724,1.25 0.534962,1.25 -0.06914,1.25 -0.379625,1.25 -0.04848,1.25 0.02516,1.25 -0.009,1.25 0.03533,1.25 0.151227,1.25 0.459193,1.25 -0.270021,1.25 -0.374493,1.25 0.04148,1.25 0.05942,1.25 -0.07925,1.25 0.187573,1.25 -0.313001,1.25 0.01166,1.25 0.13062,1.25 0.142595,1.25 0.233474,1.25 -0.331887,1.25 -0.116767,1.25 -0.04913,1.25 -0.04278,1.25 -0.01699,1.25 -0.01981,1.25 -0.0092,1.25 0.01873,1.25 0.0036,1.25 0.04786,1.25 0.120771,1.25 -0.004,1.25 0.338535,1.25 -0.188794,1.25 -0.123803,1.25 -0.0521,1.25 L 86.19776,80 86,81.25"
       id="path8"
       style="fill:url(#linearGradient35)" />
    <path
       fill="url(#grad1)"
       stroke-width="0"
       d="m 87,0 0.03982,1.25 0.01247,1.25 -0.01256,1.25 -0.0053,1.25 -0.0098,1.25 0.03098,1.25 -0.0076,1.25 -0.01252,1.25 0.02085,1.25 0.0012,1.25 0.02062,1.25 -0.01461,1.25 6.89e-4,1.25 0.06159,1.25 -0.03332,1.25 0.110238,1.25 0.506678,1.25 -0.193115,1.25 -0.394743,1.25 -0.06111,1.25 -0.0038,1.25 -0.0038,1.25 -0.01393,1.25 0.01378,1.25 0.0598,1.25 -0.03306,1.25 0.11866,1.25 0.412412,1.25 0.02083,1.25 -0.442449,1.25 -0.08809,1.25 -0.0218,1.25 -0.0039,1.25 -0.04867,1.25 0.112912,1.25 0.400664,1.25 -0.134523,1.25 -0.16442,1.25 0.04497,1.25 0.07095,1.25 0.04347,1.25 0.16143,1.25 -0.256161,1.25 -0.0014,1.25 0.09623,1.25 -0.04214,1.25 0.203869,1.25 -0.309784,1.25 -0.148924,1.25 -0.02607,1.25 -0.01278,1.25 0.0137,1.25 0.0035,1.25 0.02826,1.25 -0.0028,1.25 0.03247,1.25 0.08947,1.25 0.09385,1.25 -0.07668,1.25 L 87.463649,75 87.256184,76.25 87.11824,77.5 87.0593,78.75 87.035407,80 87,81.25"
       id="path9"
       style="fill:url(#linearGradient36)" />
    <path
       fill="url(#grad1)"
       stroke-width="0"
       d="m 88,0 0.104236,1.25 -0.03492,1.25 0.002,1.25 -0.0051,1.25 0.0024,1.25 -0.03684,1.25 -0.0032,1.25 0.03492,1.25 0.003,1.25 5.69e-4,1.25 0.03932,1.25 -0.0165,1.25 -0.0031,1.25 0.02641,1.25 -0.02939,1.25 0.08698,1.25 0.564782,1.25 -0.235223,1.25 -0.374981,1.25 -0.03459,1.25 0.02584,1.25 -0.0097,1.25 -0.0088,1.25 -0.03613,1.25 0.03035,1.25 0.01343,1.25 0.110394,1.25 0.461075,1.25 -0.09648,1.25 -0.42918,1.25 -0.04044,1.25 -0.02925,1.25 0.04579,1.25 -0.03729,1.25 0.103306,1.25 0.471215,1.25 -0.146631,1.25 -0.350945,1.25 0.02117,1.25 0.0079,1.25 0.238688,1.25 0.213811,1.25 -0.26942,1.25 -0.01911,1.25 0.09698,1.25 0.01646,1.25 0.07379,1.25 -0.305322,1.25 -0.0349,1.25 -0.06241,1.25 0.0064,1.25 -0.0044,1.25 -0.02163,1.25 -0.0044,1.25 -0.06052,1.25 0.08597,1.25 -0.01759,1.25 0.111601,1.25 0.146358,1.25 0.177802,1.25 -0.219554,1.25 -0.118156,1.25 -0.03715,1.25 L 88.174444,80 88,81.25"
       id="path10"
       style="fill:url(#linearGradient37)" />
    <path
       fill="url(#grad1)"
       stroke-width="0"
       d="m 89,0 0.08426,1.25 0.01526,1.25 0.0031,1.25 0.0058,1.25 -0.07971,1.25 -0.01379,1.25 0.0169,1.25 -0.014,1.25 -0.01065,1.25 0.02052,1.25 0.08862,1.25 7.8e-4,1.25 0.0022,1.25 0.0361,1.25 -2.29e-4,1.25 0.08246,1.25 0.553005,1.25 -0.267967,1.25 -0.397702,1.25 -0.05401,1.25 -0.01428,1.25 0.0097,1.25 0.04398,1.25 0.009,1.25 -0.07804,1.25 0.02797,1.25 0.149178,1.25 0.506044,1.25 -0.09942,1.25 -0.425828,1.25 -0.04413,1.25 -0.03213,1.25 0.0425,1.25 -0.03637,1.25 0.111738,1.25 0.461177,1.25 -0.164489,1.25 -0.407779,1.25 0.0191,1.25 0.03351,1.25 0.294567,1.25 0.191759,1.25 -0.268397,1.25 -0.02596,1.25 0.0817,1.25 -0.03135,1.25 0.128219,1.25 -0.303045,1.25 -0.04655,1.25 -0.0358,1.25 0.0148,1.25 0.0091,1.25 -0.02149,1.25 0.01792,1.25 -0.04949,1.25 0.08752,1.25 -0.0253,1.25 0.113958,1.25 0.110441,1.25 0.07872,1.25 -0.253742,1.25 -0.127681,1.25 -0.0599,1.25 L 89.049224,80 89,81.25"
       id="path11"
       style="fill:url(#linearGradient38)" />
    <path
       fill="url(#grad1)"
       stroke-width="0"
       d="m 90,0 0.418898,1.25 0.01681,1.25 -0.367997,1.25 0.405312,1.25 0.311872,1.25 -0.01854,1.25 -0.442324,1.25 -0.196511,1.25 0.06521,1.25 0.04209,1.25 -0.07873,1.25 -0.06052,1.25 0.01286,1.25 -0.0026,1.25 0.0045,1.25 0.135293,1.25 0.749181,1.25 -0.320131,1.25 -0.382599,1.25 -0.235424,1.25 0.199486,1.25 0.249268,1.25 -0.248435,1.25 -0.152497,1.25 0.476667,1.25 0.106106,1.25 -0.421504,1.25 0.515237,1.25 -0.05708,1.25 -0.460249,1.25 -0.09908,1.25 -0.137924,1.25 0.11786,1.25 0.07244,1.25 0.131818,1.25 0.472409,1.25 -0.229767,1.25 -0.517825,1.25 0.05971,1.25 0.19898,1.25 0.356515,1.25 -0.08881,1.25 -0.36037,1.25 -0.147219,1.25 0.06099,1.25 0.626967,1.25 0.05363,1.25 -0.3883,1.25 -0.187808,1.25 0.08799,1.25 0.09603,1.25 -0.155899,1.25 -0.0099,1.25 0.04837,1.25 -0.07771,1.25 -0.170268,1.25 0.24039,1.25 0.143851,1.25 0.171195,1.25 -0.101757,1.25 -0.316898,1.25 -0.108246,1.25 -0.03912,1.25 L 90.054406,80 90,81.25"
       id="path12"
       style="fill:url(#linearGradient39)" />
    <path
       fill="url(#grad1)"
       stroke-width="0"
       d="m 91,0 0.418424,1.25 0.345314,1.25 0.0019,1.25 -0.07888,1.25 -0.0062,1.25 0.230513,1.25 -0.781718,1.25 0.495357,1.25 -0.327686,1.25 0.03979,1.25 0.08482,1.25 -0.05486,1.25 -0.09457,1.25 0.07046,1.25 -0.111077,1.25 0.0436,1.25 0.101943,1.25 -0.105559,1.25 -0.0043,1.25 0.162244,1.25 -0.07076,1.25 0.02765,1.25 -0.03068,1.25 -0.08332,1.25 -0.195828,1.25 0.50333,1.25 -0.363412,1.25 0.651174,1.25 -0.214123,1.25 -0.503308,1.25 0.49182,1.25 -0.02564,1.25 -0.03923,1.25 0.07371,1.25 -0.383325,1.25 0.356333,1.25 0.253857,1.25 -0.329638,1.25 -0.04973,1.25 0.223446,1.25 0.331923,1.25 -0.441967,1.25 -0.168093,1.25 0.05841,1.25 0.239403,1.25 0.333019,1.25 -0.728166,1.25 0.307104,1.25 0.0657,1.25 -0.0612,1.25 -0.0815,1.25 -0.360677,1.25 0.103708,1.25 0.321032,1.25 -0.148153,1.25 0.0018,1.25 0.04882,1.25 -0.488934,1.25 0.716307,1.25 -0.03058,1.25 -0.434743,1.25 -0.140551,1.25 -0.0872,1.25 L 91.04577,80 91,81.25"
       id="path13"
       style="fill:url(#linearGradient40)" />
    <path
       fill="url(#grad1)"
       stroke-width="0"
       d="m 92,0 0.491253,1.25 0.628335,1.25 -0.397283,1.25 -0.548257,1.25 0.402871,1.25 0.120365,1.25 -0.09575,1.25 0.373761,1.25 0.07383,1.25 -0.535368,1.25 0.608662,1.25 0.238162,1.25 -0.110262,1.25 -0.150169,1.25 -0.526126,1.25 0.139291,1.25 0.214442,1.25 0.196302,1.25 0.143382,1.25 -0.07311,1.25 -0.478368,1.25 0.413121,1.25 -0.06248,1.25 -0.505639,1.25 0.38003,1.25 0.215372,1.25 -0.379878,1.25 0.664658,1.25 -0.320116,1.25 0.204093,1.25 -0.426697,1.25 -0.553526,1.25 0.370393,1.25 0.399321,1.25 -0.723027,1.25 0.359654,1.25 -0.480891,1.25 -0.05296,1.25 -0.0973,1.25 -9.77e-4,1.25 0.127711,1.25 0.29205,1.25 -0.236309,1.25 -0.04177,1.25 0.176357,1.25 0.848503,1.25 -0.389251,1.25 0.558338,1.25 -0.372362,1.25 -0.404618,1.25 0.546221,1.25 0.0033,1.25 -0.177414,1.25 0.02971,1.25 -0.713365,1.25 0.231945,1.25 0.432217,1.25 -0.444611,1.25 0.539285,1.25 L 92.87751,75 92.389543,76.25 92.273944,77.5 92.252758,78.75 92.229713,80 92,81.25"
       id="path14"
       style="fill:url(#linearGradient41)" />
    <path
       fill="url(#grad1)"
       stroke-width="0"
       d="M 93,0 94.10581,1.25 93.764977,2.5 94.09853,3.75 93.598194,5 93.780802,6.25 93.976251,7.5 93.946613,8.75 94.2725,10 l -0.140289,1.25 -0.597257,1.25 0.590118,1.25 0.02816,1.25 -0.110021,1.25 -0.089,1.25 -0.405782,1.25 0.08693,1.25 0.3307,1.25 0.268372,1.25 0.130422,1.25 -0.0178,1.25 -0.509674,1.25 0.3891,1.25 -0.09376,1.25 -0.602294,1.25 0.343522,1.25 0.117131,1.25 -0.378212,1.25 0.680235,1.25 -0.154098,1.25 0.213693,1.25 -0.290045,1.25 -0.542658,1.25 0.340016,1.25 0.44798,1.25 -0.758276,1.25 0.342406,1.25 -0.636995,1.25 -0.137697,1.25 -0.03222,1.25 0.01859,1.25 0.286015,1.25 0.247375,1.25 -0.258425,1.25 -0.0128,1.25 0.195325,1.25 0.651821,1.25 -0.495072,1.25 0.554622,1.25 -0.316684,1.25 -0.443318,1.25 0.563684,1.25 0.128721,1.25 -0.179958,1.25 0.20678,1.25 -0.654285,1.25 0.145965,1.25 0.547446,1.25 -0.459839,1.25 0.496941,1.25 -0.526694,1.25 -0.547193,1.25 -0.08079,1.25 -0.04486,1.25 L 93.101039,80 93,81.25"
       id="path15"
       style="fill:url(#linearGradient42)" />
    <path
       fill="url(#grad1)"
       stroke-width="0"
       d="m 94,0 1.573274,1.25 -0.558698,1.25 0.619388,1.25 -1.067489,1.25 0.132897,1.25 0.739606,1.25 -0.512161,1.25 0.268122,1.25 -0.518851,1.25 -0.561357,1.25 0.360164,1.25 0.681765,1.25 0.03167,1.25 -0.191691,1.25 -0.940715,1.25 0.268227,1.25 0.600853,1.25 0.09463,1.25 0.207039,1.25 0.168861,1.25 -0.987372,1.25 0.512401,1.25 0.149646,1.25 -0.599394,1.25 0.555549,1.25 0.179709,1.25 -0.566311,1.25 0.523565,1.25 -0.174093,1.25 0.0245,1.25 -0.101465,1.25 -0.657433,1.25 0.17036,1.25 0.783838,1.25 -0.127131,1.25 0.121639,1.25 -0.878277,1.25 -0.07082,1.25 -0.01494,1.25 0.148554,1.25 0.397724,1.25 -0.3217,1.25 -0.300605,1.25 -0.03644,1.25 0.20435,1.25 0.913433,1.25 -0.205878,1.25 0.257828,1.25 -0.748743,1.25 -0.369409,1.25 0.656689,1.25 0.376102,1.25 -0.153117,1.25 -0.225827,1.25 -0.621633,1.25 0.094,1.25 0.7736,1.25 -0.08368,1.25 0.238875,1.25 -0.526334,1.25 -0.515912,1.25 -0.08875,1.25 -0.0189,1.25 L 94.074268,80 94,81.25"
       id="path16"
       style="fill:url(#linearGradient43)" />
    <path
       fill="url(#grad1)"
       stroke-width="0"
       d="M 95,0 96.318815,1.25 96.199519,2.5 96.38872,3.75 95.352206,5 l 0.12802,1.25 0.786046,1.25 -0.282907,1.25 -0.02154,1.25 -0.704177,1.25 -0.137567,1.25 0.08488,1.25 0.529522,1.25 0.44213,1.25 -0.220283,1.25 -0.777693,1.25 0.0458,1.25 0.907993,1.25 -0.110188,1.25 0.172224,1.25 0.03915,1.25 -0.939243,1.25 0.503815,1.25 0.409601,1.25 -0.611946,1.25 0.495751,1.25 0.1412,1.25 -0.701259,1.25 0.44208,1.25 0.148476,1.25 0.08526,1.25 -0.61634,1.25 -0.449251,1.25 0.136121,1.25 0.817328,1.25 0.02543,1.25 0.208916,1.25 -0.632551,1.25 -0.629908,1.25 0.123759,1.25 0.33219,1.25 0.76061,1.25 -0.756832,1.25 -0.332514,1.25 -0.148785,1.25 0.195214,1.25 1.129387,1.25 -0.188164,1.25 -0.39444,1.25 -0.647415,1.25 -0.09883,1.25 0.226262,1.25 0.623678,1.25 0.35351,1.25 -0.413224,1.25 -0.631425,1.25 0.05809,1.25 0.761767,1.25 0.02941,1.25 0.101298,1.25 -0.363,1.25 -0.495095,1.25 0.142828,1.25 -0.02599,1.25 L 95.178762,80 95,81.25"
       id="path17"
       style="fill:url(#linearGradient44)" />
    <path
       fill="url(#grad1)"
       stroke-width="0"
       d="M 96,0 97.003492,1.25 96.793096,2.5 97.321711,3.75 96.485543,5 96.546276,6.25 97.398898,7.5 96.908321,8.75 96.60814,10 l -0.415025,1.25 -0.120227,1.25 0.04786,1.25 0.578531,1.25 0.483015,1.25 -0.234824,1.25 -0.674822,1.25 0.01836,1.25 1.005431,1.25 -0.343936,1.25 0.07797,1.25 0.293202,1.25 -0.784854,1.25 0.512112,1.25 0.155934,1.25 -0.791243,1.25 0.443132,1.25 0.366816,1.25 -0.457199,1.25 0.428058,1.25 -0.410249,1.25 0.429707,1.25 -0.320531,1.25 -0.451743,1.25 0.09421,1.25 0.798961,1.25 -0.529795,1.25 0.333253,1.25 -0.09915,1.25 -0.699332,1.25 -0.0072,1.25 0.315526,1.25 0.906566,1.25 -0.993238,1.25 -0.26308,1.25 -0.04328,1.25 0.19581,1.25 1.095107,1.25 -0.551894,1.25 -0.533816,1.25 -0.379547,1.25 0.01882,1.25 0.07672,1.25 0.582161,1.25 0.447702,1.25 -0.247993,1.25 -0.616814,1.25 0.05498,1.25 0.753127,1.25 -0.222101,1.25 0.208772,1.25 -0.17175,1.25 -0.47087,1.25 0.486724,1.25 0.364501,1.25 L 96.571692,80 96,81.25"
       id="path18"
       style="fill:url(#linearGradient45)" />
    <path
       fill="url(#grad1)"
       stroke-width="0"
       d="m 97,0 1.733888,1.25 -1.086071,1.25 1.179097,1.25 -1.114052,1.25 -0.003,1.25 0.315094,1.25 0.151285,1.25 -0.299951,1.25 -0.489171,1.25 -0.0303,1.25 0.08455,1.25 0.575144,1.25 -0.151248,1.25 0.284229,1.25 -0.565272,1.25 0.01201,1.25 0.811299,1.25 -0.723941,1.25 0.36207,1.25 0.429085,1.25 -1.068648,1.25 0.432106,1.25 0.395114,1.25 -0.645173,1.25 0.438013,1.25 0.07847,1.25 -0.426386,1.25 0.585482,1.25 -0.469115,1.25 0.348837,1.25 -0.22683,1.25 -0.465635,1.25 0.07204,1.25 0.893326,1.25 -0.625796,1.25 0.213378,1.25 0.155492,1.25 -0.647603,1.25 0.0023,1.25 0.324913,1.25 0.89371,1.25 -1.304092,1.25 -0.152167,1.25 0.01729,1.25 0.195719,1.25 0.772082,1.25 -0.08317,1.25 -0.473058,1.25 -0.397455,1.25 -0.09835,1.25 0.08863,1.25 0.746229,1.25 -0.08413,1.25 0.11278,1.25 -0.518857,1.25 0.04848,1.25 0.736844,1.25 -0.583303,1.25 0.448264,1.25 -0.152733,1.25 -0.563682,1.25 0.411317,1.25 0.39106,1.25 L 97.625234,80 97,81.25"
       id="path19"
       style="fill:url(#linearGradient46)" />
    <path
       fill="url(#grad1)"
       stroke-width="0"
       d="m 98,0 1.880259,1.25 -0.60367,1.25 0.19357,1.25 -1.167451,1.25 0.178221,1.25 1.129415,1.25 -0.898567,1.25 -0.277479,1.25 -0.05295,1.25 0.07953,1.25 0.534941,1.25 0.154478,1.25 -0.423875,1.25 0.637112,1.25 -0.828516,1.25 0.04259,1.25 0.640121,1.25 -0.371366,1.25 0.144899,1.25 0.426378,1.25 -0.930362,1.25 0.456038,1.25 0.175307,1.25 -0.586229,1.25 0.535255,1.25 0.06982,1.25 -0.577924,1.25 0.716104,1.25 -0.392081,1.25 0.09861,1.25 0.08327,1.25 -0.477622,1.25 0.09748,1.25 0.663102,1.25 -0.656538,1.25 0.402827,1.25 0.05591,1.25 -0.736235,1.25 -0.0041,1.25 0.301864,1.25 0.900869,1.25 -1.100859,1.25 -0.235683,1.25 -0.0083,1.25 0.244387,1.25 1.170557,1.25 -1.050141,1.25 -0.237848,1.25 -0.02508,1.25 0.05322,1.25 0.780292,1.25 -0.125106,1.25 -0.192248,1.25 0.311529,1.25 -0.641311,1.25 0.04515,1.25 0.647614,1.25 -0.489744,1.25 0.324702,1.25 -0.02904,1.25 -0.622208,1.25 0.405809,1.25 0.406632,1.25 L 98.681367,80 98,81.25"
       id="path20"
       style="fill:url(#linearGradient47)" />
    <path
       fill="url(#grad1)"
       stroke-width="0"
       d="m 99,0 1.61591,1.25 -0.786344,1.25 0.375164,1.25 -0.464978,1.25 0.08833,1.25 0.497858,1.25 -0.604891,1.25 0.02062,1.25 0.07146,1.25 -0.155499,1.25 0.66457,1.25 -0.553202,1.25 0.172228,1.25 0.375584,1.25 -0.726682,1.25 0.252421,1.25 0.444071,1.25 -0.549343,1.25 0.286413,1.25 0.41068,1.25 -1.016855,1.25 0.531146,1.25 0.196829,1.25 -0.682385,1.25 0.592865,1.25 0.13162,1.25 -0.718978,1.25 0.892608,1.25 -0.559905,1.25 0.132358,1.25 0.477457,1.25 -0.921676,1.25 0.234838,1.25 0.603408,1.25 -0.701727,1.25 0.355378,1.25 0.394739,1.25 -0.798565,1.25 -0.08836,1.25 0.184473,1.25 0.760192,1.25 -0.68227,1.25 -0.222087,1.25 0.0042,1.25 0.231721,1.25 0.728576,1.25 -0.904817,1.25 0.138964,1.25 -0.119788,1.25 -0.03427,1.25 0.853201,1.25 -0.453295,1.25 -0.176647,1.25 0.526282,1.25 -0.7652,1.25 0.106121,1.25 0.693279,1.25 -0.695819,1.25 0.271709,1.25 0.26898,1.25 -0.701227,1.25 0.564717,1.25 0.0644,1.25 L 99.580328,80 99,81.25"
       id="path21"
       style="fill:url(#linearGradient48)" />
    <path
       fill="url(#grad1)"
       stroke-width="0"
       d="m 100,0 4,1.25 -0.88574,1.25 -1.36543,1.25 -0.7701,1.25 -0.11279,1.25 1.90689,1.25 -1.95394,1.25 1.33125,1.25 -0.31587,1.25 -1.02303,1.25 1.51979,1.25 -0.95886,1.25 -0.37573,1.25 1.56647,1.25 -1.52799,1.25 0.5587,1.25 0.96117,1.25 -1.38706,1.25 0.0146,1.25 1.06174,1.25 -1.45526,1.25 0.6009,1.25 0.61647,1.25 -1.29706,1.25 0.65312,1.25 0.71989,1.25 -1.38204,1.25 1.7236,1.25 -1.63256,1.25 0.48175,1.25 0.99368,1.25 -1.61238,1.25 0.81311,1.25 0.75084,1.25 -1.65179,1.25 1.1983,1.25 -0.23375,1.25 -0.93311,1.25 -0.12757,1.25 0.20139,1.25 1.66671,1.25 -1.76762,1.25 -0.10108,1.25 0.0367,1.25 0.26995,1.25 1.65614,1.25 -2.00037,1.25 1.67015,1.25 -0.57782,1.25 -0.91468,1.25 1.70262,1.25 -1.13081,1.25 -0.45313,1.25 1.75284,1.25 -1.49772,1.25 0.30043,1.25 1.24498,1.25 -1.87159,1.25 0.56135,1.25 1.31604,1.25 -1.5655,1.25 1.29996,1.25 -0.26144,1.25 L 101.11057,80 100,81.25"
       id="path22"
       style="fill:url(#linearGradient49)" />
    <path
       fill="url(#grad1)"
       stroke-width="0"
       d="m 101,0 1.91406,1.25 0.3709,1.25 -1.01538,1.25 -0.69613,1.25 -0.0215,1.25 1.97475,1.25 -1.83505,1.25 1.25961,1.25 -0.12318,1.25 -1.12739,1.25 1.55428,1.25 -0.73284,1.25 -0.54705,1.25 1.71935,1.25 -1.46903,1.25 0.53127,1.25 0.97944,1.25 -1.54798,1.25 0.17846,1.25 0.76954,1.25 -1.40287,1.25 0.6694,1.25 0.39792,1.25 -1.30826,1.25 0.68739,1.25 0.83084,1.25 -1.41196,1.25 1.75517,1.25 -1.34639,1.25 0.25984,1.25 1.24111,1.25 -1.61183,1.25 0.82315,1.25 0.60752,1.25 -1.64347,1.25 1.26578,1.25 -0.65877,1.25 -0.90119,1.25 -0.0684,1.25 0.29706,1.25 1.46529,1.25 -1.59102,1.25 -0.17038,1.25 0.003,1.25 0.23362,1.25 1.8492,1.25 -1.89597,1.25 1.58203,1.25 -0.36659,1.25 -0.99209,1.25 1.74523,1.25 -1.16576,1.25 -0.42102,1.25 1.73992,1.25 -1.60742,1.25 0.42183,1.25 1.0894,1.25 -1.93848,1.25 0.71759,1.25 1.06964,1.25 -1.60594,1.25 1.29167,1.25 -0.16325,1.25 L 102.00348,80 101,81.25"
       id="path23"
       style="fill:url(#linearGradient50)" />
    <path
       fill="url(#grad1)"
       stroke-width="0"
       d="m 102,0 1.95729,1.25 0.15036,1.25 -1.31373,1.25 -0.18144,1.25 0.0329,1.25 1.84924,1.25 -1.84297,1.25 0.3916,1.25 1.6708,1.25 -0.15268,1.25 0.41525,1.25 -1.73667,1.25 -0.18012,1.25 1.63506,1.25 -0.0231,1.25 0.23957,1.25 -0.37555,1.25 -1.06401,1.25 0.0547,1.25 0.8034,1.25 -1.47982,1.25 0.68188,1.25 0.19108,1.25 -1.32011,1.25 0.74504,1.25 0.94139,1.25 -1.41564,1.25 1.78676,1.25 -1.25332,1.25 -0.24022,1.25 1.85855,1.25 -0.19978,1.25 0.23399,1.25 -1.14263,1.25 -0.8186,1.25 1.1881,1.25 -0.76058,1.25 -0.92129,1.25 -0.0576,1.25 0.33209,1.25 1.46828,1.25 -1.56074,1.25 -0.22614,1.25 -0.0206,1.25 0.21259,1.25 1.93476,1.25 -1.86909,1.25 0.62644,1.25 1.52217,1.25 -0.0974,1.25 0.34417,1.25 -1.90314,1.25 0.0135,1.25 1.47991,1.25 -0.20934,1.25 0.1811,1.25 -0.35887,1.25 -1.13389,1.25 0.15837,1.25 1.79963,1.25 -0.28146,1.25 -0.18125,1.25 -1.58704,1.25 L 102.51642,80 102,81.25"
       id="path24"
       style="fill:url(#linearGradient51)" />
    <path
       fill="url(#grad1)"
       stroke-width="0"
       d="m 103,0 2.52726,1.25 -2.06155,1.25 0.0277,1.25 -0.35451,1.25 -0.0287,1.25 1.10096,1.25 -0.60268,1.25 -0.0444,1.25 1.12052,1.25 0.21125,1.25 -0.77777,1.25 -0.7083,1.25 -0.0399,1.25 0.40109,1.25 0.89365,1.25 -0.003,1.25 -0.15804,1.25 -0.77256,1.25 0.17753,1.25 0.0569,1.25 -0.78217,1.25 0.4124,1.25 0.61346,1.25 -0.70401,1.25 0.38819,1.25 0.15556,1.25 -0.86917,1.25 0.94793,1.25 -0.3855,1.25 -0.16132,1.25 0.59646,1.25 0.7601,1.25 -0.37515,1.25 -1.08465,1.25 -0.069,1.25 0.76737,1.25 -0.50542,1.25 -0.51744,1.25 -0.0616,1.25 0.16456,1.25 1.07488,1.25 -0.99478,1.25 -0.0963,1.25 -0.0237,1.25 0.047,1.25 0.89274,1.25 -0.56694,1.25 0.0875,1.25 1.20616,1.25 0.0129,1.25 -1.05402,1.25 -0.61506,1.25 0.10352,1.25 0.47733,1.25 1.23243,1.25 -0.23448,1.25 -1.44862,1.25 -0.24424,1.25 0.0742,1.25 0.87953,1.25 0.98955,1.25 -0.54789,1.25 -1.0795,1.25 L 103.33939,80 103,81.25"
       id="path25"
       style="fill:url(#linearGradient52)" />
    <path
       fill="url(#grad1)"
       stroke-width="0"
       d="m 104,0 2.29082,1.25 -0.92746,1.25 0.48257,1.25 -1.63387,1.25 -0.0974,1.25 -0.0244,1.25 -0.0314,1.25 -0.0157,1.25 0.0159,1.25 -0.009,1.25 0.004,1.25 -0.0451,1.25 -0.005,1.25 0.0506,1.25 -0.0185,1.25 -0.003,1.25 -0.006,1.25 -1.1e-4,1.25 0.003,1.25 -0.001,1.25 -0.005,1.25 -0.005,1.25 0.007,1.25 -0.002,1.25 0.005,1.25 -0.006,1.25 -0.002,1.25 1.6e-4,1.25 0.003,1.25 0.0163,1.25 -0.0348,1.25 0.008,1.25 0.003,1.25 0.0335,1.25 -0.0338,1.25 -0.005,1.25 0.003,1.25 0.006,1.25 -0.004,1.25 -0.002,1.25 -0.003,1.25 0.002,1.25 -0.003,1.25 0.006,1.25 -0.005,1.25 5.7e-4,1.25 0.009,1.25 0.0197,1.25 -0.0336,1.25 0.005,1.25 -0.004,1.25 0.0301,1.25 -0.003,1.25 -0.0116,1.25 -0.0129,1.25 10e-4,1.25 0.0203,1.25 -0.0113,1.25 0.007,1.25 -0.0145,1.25 -0.008,1.25 0.0113,1.25 0.009,1.25 -0.007,1.25 L 104,81.25"
       id="path26"
       style="fill:url(#linearGradient53)" />
    <path
       fill="url(#grad1)"
       stroke-width="0"
       d="m 105,0 1.72543,1.25 -1.08505,1.25 1.66591,1.25 -1.7789,1.25 -0.17364,1.25 -0.0845,1.25 -0.036,1.25 1.1e-4,1.25 -0.0638,1.25 -0.0134,1.25 -0.0223,1.25 0.0194,1.25 -0.0178,1.25 -0.0313,1.25 -0.004,1.25 -0.004,1.25 -0.005,1.25 -0.0105,1.25 0.002,1.25 -0.002,1.25 -0.008,1.25 -0.005,1.25 6.3e-4,1.25 -0.004,1.25 -0.003,1.25 -0.004,1.25 0.0101,1.25 -0.0105,1.25 -0.008,1.25 -0.0161,1.25 0.0359,1.25 -0.0106,1.25 -0.003,1.25 -0.0146,1.25 0.0137,1.25 -0.003,1.25 -0.002,1.25 -0.004,1.25 7.3e-4,1.25 0.003,1.25 -0.005,1.25 -0.002,1.25 0.005,1.25 -0.004,1.25 -0.006,1.25 0.003,1.25 0.005,1.25 0.0189,1.25 -0.024,1.25 10e-4,1.25 -0.002,1.25 -0.002,1.25 -0.004,1.25 0.0217,1.25 -0.0159,1.25 -6.5e-4,1.25 -0.0217,1.25 0.0368,1.25 0.003,1.25 -0.0259,1.25 0.003,1.25 -3.6e-4,1.25 0.0255,1.25 -0.016,1.25 L 105,81.25"
       id="path27"
       style="fill:url(#linearGradient54)" />
    <path
       fill="url(#grad1)"
       stroke-width="0"
       d="m 106,0 1.57159,1.25 0.33872,1.25 0.40531,1.25 -1.86283,1.25 -0.17506,1.25 -0.0284,1.25 -0.0679,1.25 -0.0363,1.25 0.0217,1.25 -0.0405,1.25 -0.0463,1.25 0.0155,1.25 -0.002,1.25 0.007,1.25 -0.0319,1.25 0.0471,1.25 -0.0293,1.25 -0.0383,1.25 0.003,1.25 0.0271,1.25 -0.0295,1.25 -0.0113,1.25 0.0458,1.25 -0.0322,1.25 -0.019,1.25 0.0373,1.25 -0.0236,1.25 -0.0207,1.25 0.0308,1.25 -0.002,1.25 -0.001,1.25 0.005,1.25 0.036,1.25 -0.0659,1.25 0.006,1.25 0.0197,1.25 -0.0128,1.25 -0.006,1.25 0.004,1.25 -7e-5,1.25 -0.005,1.25 -0.001,1.25 -0.002,1.25 -6.4e-4,1.25 -0.002,1.25 0.0309,1.25 -0.024,1.25 -0.009,1.25 0.0439,1.25 -0.0223,1.25 -0.007,1.25 -0.0109,1.25 0.004,1.25 0.0314,1.25 -0.0373,1.25 0.0226,1.25 0.002,1.25 -0.0224,1.25 -0.003,1.25 0.0586,1.25 -0.0647,1.25 0.0129,1.25 0.004,1.25 -0.003,1.25 L 106,81.25"
       id="path28"
       style="fill:url(#linearGradient55)" />
    <path
       fill="url(#grad1)"
       stroke-width="0"
       d="m 107,0 3.6352,1.25 -0.35014,1.25 -2.44924,1.25 -0.6407,1.25 -0.0833,1.25 -0.0385,1.25 -0.0126,1.25 -0.0154,1.25 -0.002,1.25 3.5e-4,1.25 -0.0185,1.25 0.006,1.25 -0.003,1.25 -4.9e-4,1.25 0.0174,1.25 -0.0211,1.25 -0.006,1.25 0.004,1.25 -0.001,1.25 -0.003,1.25 -0.003,1.25 -2e-5,1.25 0.002,1.25 -0.006,1.25 2.1e-4,1.25 5.6e-4,1.25 0.004,1.25 -0.006,1.25 10e-4,1.25 -2.1e-4,1.25 4e-5,1.25 0.013,1.25 -0.002,1.25 -0.004,1.25 -0.004,1.25 -0.001,1.25 -0.007,1.25 0.003,1.25 0.005,1.25 -0.004,1.25 5e-5,1.25 0.001,1.25 -0.002,1.25 -0.002,1.25 9.6e-4,1.25 -0.004,1.25 0.003,1.25 0.001,1.25 0.003,1.25 0.0269,1.25 -0.0247,1.25 -8.2e-4,1.25 -0.004,1.25 -0.004,1.25 0.0171,1.25 0.0101,1.25 -0.0163,1.25 5.2e-4,1.25 -9e-4,1.25 10e-4,1.25 0.006,1.25 -0.003,1.25 -0.008,1.25 L 107.01036,80 107,81.25"
       id="path29"
       style="fill:url(#linearGradient56)" />
    <path
       fill="url(#grad1)"
       stroke-width="0"
       d="m 108,0 2.91463,1.25 -1.08449,1.25 -1.64898,1.25 -0.0355,1.25 -0.0312,1.25 -0.0238,1.25 -0.0167,1.25 -0.001,1.25 -0.0107,1.25 -0.0147,1.25 -0.005,1.25 0.006,1.25 -0.01,1.25 -0.005,1.25 0.001,1.25 -0.003,1.25 -5.5e-4,1.25 -0.007,1.25 0.006,1.25 -0.002,1.25 -0.005,1.25 0.005,1.25 -7.1e-4,1.25 -0.003,1.25 -0.002,1.25 -0.003,1.25 0.006,1.25 -0.004,1.25 -1.1e-4,1.25 10e-4,1.25 0.004,1.25 -0.008,1.25 -0.003,1.25 0.006,1.25 -4.1e-4,1.25 5.9e-4,1.25 7e-4,1.25 -0.005,1.25 -0.002,1.25 0.005,1.25 -0.002,1.25 3.8e-4,1.25 -0.002,1.25 0.002,1.25 2.3e-4,1.25 -7.5e-4,1.25 -0.002,1.25 1e-4,1.25 9e-5,1.25 4.9e-4,1.25 -0.001,1.25 0.002,1.25 -0.004,1.25 -2e-5,1.25 0.004,1.25 0.003,1.25 -0.003,1.25 0.003,1.25 -0.004,1.25 -10e-4,1.25 0.003,1.25 -6.8e-4,1.25 -3.9e-4,1.25 0.002,1.25 L 108,81.25"
       id="path30"
       style="fill:url(#linearGradient57)" />
    <path
       fill="url(#grad1)"
       stroke-width="0"
       d="m 109,0 3.14219,1.25 -1.494,1.25 -1.58858,1.25 -0.0216,1.25 -0.0136,1.25 -0.011,1.25 0.002,1.25 2.2e-4,1.25 -0.002,1.25 0.003,1.25 -0.005,1.25 0.002,1.25 -0.008,1.25 0.002,1.25 5.2e-4,1.25 0.001,1.25 -4.8e-4,1.25 -9e-4,1.25 -7.1e-4,1.25 -0.004,1.25 0.004,1.25 -0.002,1.25 -0.002,1.25 0.004,1.25 -0.003,1.25 -0.004,1.25 0.007,1.25 -0.004,1.25 0.003,1.25 -0.003,1.25 0.002,1.25 -5.4e-4,1.25 4.3e-4,1.25 -10e-4,1.25 -5.4e-4,1.25 3.5e-4,1.25 2.5e-4,1.25 9.6e-4,1.25 -0.001,1.25 0.001,1.25 6.3e-4,1.25 -0.001,1.25 3.9e-4,1.25 -5.1e-4,1.25 6.4e-4,1.25 0.003,1.25 -0.003,1.25 -0.001,1.25 -0.001,1.25 0.002,1.25 -0.003,1.25 10e-4,1.25 8e-5,1.25 8.1e-4,1.25 -3.4e-4,1.25 0.004,1.25 -5e-4,1.25 -0.005,1.25 0.005,1.25 -0.002,1.25 0.002,1.25 -4.8e-4,1.25 -0.002,1.25 -6e-5,1.25 -0.003,1.25"
       id="path31"
       style="fill:url(#linearGradient58)" />
  </g>
</svg>
